# xmcd CD database file
#
# Track frame offsets:
#	150
#	17635
#	37100
#	50348
#	68853
#	81853
#	101571
#	116166
#	141473
#	161378
#	176758
#	192961
#	204296
#
# Disc length: 3302 seconds
#
# Revision: 0
# Processed by: cddbd v1.5.1PL2 Copyright (c) Steve Scherf et al.
# Submitted via: CDex 1.70beta1
#
DISCID=b50ce40d
DTITLE=Toots Thielemans - The Brasil Project
DYEAR=1900
DGENRE=Jazz
TTITLE0=Fruta Doce
TTITLE1=Obi
TTITLE2=Felicia And Bianca
TTITLE3=O Cantador
TTITLE4=Joana Francesa
TTITLE5=Coisa Feita
TTITLE6=Preciso Aprender A Ser Só
TTITLE7=Fruta Boa
TTITLE8=Coração Vagabundo
TTITLE9=Manhã De Carnaval
TTITLE10=Casa Forte
TTITLE11=Moments
TTITLE12=Bluesette Gimbel
EXTD=
EXTT0=
EXTT1=
EXTT2=
EXTT3=
EXTT4=
EXTT5=
EXTT6=
EXTT7=
EXTT8=
EXTT9=
EXTT10=
EXTT11=
EXTT12=
PLAYORDER=
